<?xml version="1.0" standalone="no"?>
<!DOCTYPE svg PUBLIC "-//W3C//DTD SVG 20010904//EN"
 "http://www.w3.org/TR/2001/REC-SVG-20010904/DTD/svg10.dtd">
<svg version="1.0" xmlns="http://www.w3.org/2000/svg"
 width="690.000000pt" height="690.000000pt" viewBox="0 0 690.000000 690.000000"
 preserveAspectRatio="xMidYMid meet">
<metadata>
Created by potrace 1.14, written by Peter Selinger 2001-2017
</metadata>
<g transform="translate(0.000000,690.000000) scale(0.100000,-0.100000)"
fill="#000000" stroke="none">
<path d="M3998 5403 c-9 -43 -35 -163 -58 -268 -22 -104 -42 -196 -43 -204 -3
-17 140 -60 201 -61 91 0 122 37 203 246 30 77 49 141 49 166 0 52 -28 98 -78
126 -37 20 -210 72 -242 72 -11 0 -20 -22 -32 -77z m176 -73 c30 -12 57 -28
60 -36 9 -25 -82 -291 -105 -308 -17 -11 -28 -12 -67 -1 -26 7 -47 16 -46 21
4 39 89 344 95 344 5 0 33 -9 63 -20z"/>
<path d="M2645 5396 c-38 -13 -91 -33 -117 -45 l-47 -20 86 -193 c47 -106 99
-226 116 -266 23 -56 34 -72 46 -69 83 26 181 72 205 96 44 44 46 105 6 261
-37 145 -57 196 -94 229 -38 36 -112 38 -201 7z m139 -108 c18 -29 86 -253 86
-285 0 -19 -10 -28 -45 -44 -25 -11 -51 -19 -56 -17 -11 4 -128 301 -129 325
0 12 72 41 107 42 13 1 29 -9 37 -21z"/>
<path d="M4362 5077 c-62 -144 -112 -266 -112 -270 0 -7 61 -37 75 -37 2 0 27
45 55 100 28 55 56 100 63 100 15 0 79 -39 89 -54 11 -16 1 -40 -49 -130 -48
-84 -48 -80 8 -111 l27 -14 57 90 c54 84 57 94 53 139 -5 48 -4 48 27 54 54
10 115 93 115 156 0 41 -22 81 -61 114 -29 25 -159 95 -213 116 -21 8 -28 -5
-134 -253z m233 82 c47 -26 55 -35 55 -59 0 -16 -11 -41 -24 -57 l-24 -28 -38
18 c-22 10 -49 25 -61 33 l-23 14 27 55 c15 30 29 55 30 55 2 0 28 -14 58 -31z"/>
<path d="M3274 5276 c-16 -12 -20 -29 -22 -115 l-4 -101 27 0 c14 0 24 4 21 9
-11 18 6 41 30 41 19 0 24 -5 24 -25 0 -20 5 -25 26 -25 l26 0 -4 94 c-2 75
-7 98 -22 115 -22 25 -73 28 -102 7z m74 -79 c3 -48 3 -48 -25 -45 -23 2 -28
8 -28 30 -1 42 13 70 32 66 14 -2 19 -15 21 -51z"/>
<path d="M3444 5269 c-15 -17 -20 -40 -22 -115 l-4 -94 26 0 c25 0 25 1 28 93
3 84 5 92 23 92 18 0 20 -8 23 -92 3 -92 3 -93 28 -93 l26 0 -4 101 c-2 86 -6
103 -22 115 -29 21 -80 18 -102 -7z"/>
<path d="M3600 5175 l0 -115 50 0 c74 0 90 20 90 115 0 95 -16 115 -90 115
l-50 0 0 -115z m88 63 c16 -16 16 -110 0 -126 -7 -7 -20 -12 -30 -12 -16 0
-18 9 -18 75 0 66 2 75 18 75 10 0 23 -5 30 -12z"/>
<path d="M2260 5218 c-60 -30 -125 -96 -133 -136 -10 -50 11 -96 108 -235 100
-144 134 -172 207 -171 83 1 168 77 168 150 0 43 -18 90 -89 238 -49 101 -68
130 -98 150 -47 33 -102 34 -163 4z m182 -239 c37 -68 68 -132 68 -142 0 -18
-54 -57 -81 -57 -22 0 -48 31 -124 152 -78 125 -80 144 -13 177 59 29 69 19
150 -130z"/>
<path d="M4730 4863 l-162 -238 29 -22 c15 -13 34 -22 42 -21 12 3 317 395
342 440 8 14 1 23 -32 48 -23 16 -46 30 -50 30 -4 0 -80 -107 -169 -237z"/>
<path d="M1900 4962 c-51 -25 -118 -98 -130 -141 -19 -71 -5 -97 114 -219 60
-62 125 -122 143 -133 77 -48 138 -42 202 19 51 48 64 97 46 160 -17 55 -178
275 -227 310 -39 27 -98 29 -148 4z m103 -114 c12 -13 40 -45 62 -73 22 -27
57 -70 77 -94 46 -53 48 -81 7 -115 -49 -41 -44 -44 -177 97 -105 111 -111
128 -57 176 42 37 59 38 88 9z"/>
<path d="M5010 4902 c-21 -11 -91 -88 -177 -193 l-142 -174 32 -27 c17 -16 34
-28 38 -28 4 0 71 72 148 159 78 88 149 162 157 165 9 3 24 2 34 -4 23 -12 70
-68 70 -83 0 -6 -72 -83 -160 -172 l-160 -161 32 -31 32 -32 70 62 c193 168
276 250 287 284 24 73 -14 157 -97 214 -59 40 -116 48 -164 21z"/>
<path d="M1577 4653 c-68 -83 -167 -217 -167 -227 0 -8 451 -308 471 -313 18
-5 64 51 54 66 -3 6 -44 38 -90 71 -47 34 -85 65 -85 69 0 4 23 36 51 71 l51
63 -38 33 c-22 18 -42 33 -45 34 -3 0 -29 -29 -57 -65 -29 -36 -56 -65 -60
-65 -13 0 -92 61 -92 70 0 10 68 97 128 164 l34 38 -33 34 c-18 19 -38 34 -45
34 -7 0 -41 -35 -77 -77z"/>
<path d="M5375 4631 c-3 -5 -97 -86 -210 -181 -113 -94 -205 -173 -205 -176 0
-11 44 -64 53 -64 6 0 43 25 83 55 85 64 113 69 144 25 33 -47 24 -69 -55
-123 -38 -27 -77 -52 -85 -57 -12 -7 -11 -13 5 -44 11 -20 25 -36 31 -36 24 0
195 113 217 144 21 29 28 84 16 126 -3 13 17 16 129 20 l132 5 -36 58 -36 58
-52 -5 c-109 -11 -196 -17 -196 -13 0 2 36 32 80 66 44 34 80 64 80 67 0 4
-14 24 -31 45 -30 38 -52 48 -64 30z"/>
<path d="M4132 4483 c-202 -583 -243 -704 -237 -713 3 -5 30 -17 60 -26 30
-10 55 -21 55 -25 0 -10 -78 -228 -205 -574 -207 -562 -218 -595 -206 -609 6
-7 49 -26 96 -42 74 -25 86 -27 99 -14 7 8 29 62 49 120 82 245 359 1045 363
1050 3 2 27 -3 53 -13 72 -25 77 -24 101 41 53 139 270 777 270 793 0 23 -48
38 -60 18 -5 -7 -36 -94 -71 -193 -34 -100 -67 -187 -73 -194 -13 -13 -46 -7
-46 8 0 5 29 94 65 198 36 104 65 197 65 206 0 23 -49 41 -66 24 -7 -7 -42
-96 -77 -198 -63 -180 -84 -217 -108 -193 -9 9 3 55 51 195 80 235 78 225 47
239 -14 6 -32 9 -40 6 -8 -3 -43 -87 -77 -187 -64 -183 -87 -229 -108 -216
-20 12 -15 32 54 229 36 104 63 196 60 203 -3 8 -18 14 -34 14 -27 0 -30 -4
-80 -147z"/>
<path d="M2754 4265 c-47 -21 -120 -108 -144 -173 -57 -149 -65 -338 -21 -454
45 -117 171 -213 298 -227 49 -5 57 -9 64 -31 4 -14 65 -227 134 -475 171
-606 183 -648 198 -657 6 -4 17 -6 22 -4 6 2 49 15 96 30 49 14 89 33 93 41 3
8 -21 95 -54 193 -32 97 -115 352 -185 565 l-126 388 54 48 c73 68 109 143
115 242 8 132 -42 241 -170 375 -102 106 -191 154 -282 153 -33 0 -75 -7 -92
-14z"/>
<path d="M5019 2908 c-19 -28 -57 -83 -87 -121 -29 -38 -52 -73 -50 -78 4 -10
400 -349 409 -349 16 0 229 298 229 319 0 8 -80 55 -85 50 -1 -2 -30 -45 -64
-95 -33 -50 -67 -97 -76 -104 -16 -13 -25 -9 -83 37 l-22 18 50 69 c27 38 50
72 50 76 0 10 -63 50 -77 50 -5 0 -31 -29 -56 -65 -31 -43 -52 -63 -60 -59
-25 16 -77 59 -77 65 0 4 27 46 60 94 33 49 57 92 54 97 -3 4 -23 17 -44 28
l-38 20 -33 -52z"/>
<path d="M1766 2732 c-121 -81 -221 -152 -223 -157 -5 -15 123 -181 163 -211
43 -33 109 -42 151 -20 51 26 83 72 83 118 0 38 1 40 25 34 79 -20 181 100
157 186 -8 30 -120 197 -132 197 -3 0 -104 -66 -224 -147z m232 -34 c18 -23
32 -46 32 -51 0 -14 -57 -67 -73 -67 -15 0 -87 76 -87 91 0 8 80 69 90 69 3 0
20 -19 38 -42z m-172 -143 l37 -55 -28 -30 c-42 -44 -67 -39 -110 21 -36 48
-37 51 -19 63 11 8 30 23 44 35 14 11 28 20 31 21 4 0 24 -25 45 -55z"/>
<path d="M4728 2566 l-108 -103 143 -180 c78 -98 154 -195 168 -213 l26 -35
47 38 46 39 -35 41 c-20 23 -52 61 -72 85 l-36 43 63 64 63 64 -32 30 c-18 17
-36 31 -40 31 -4 0 -27 -21 -51 -46 -68 -69 -71 -70 -114 -19 l-36 44 80 77
81 77 -33 34 c-17 18 -37 33 -42 33 -6 -1 -59 -47 -118 -104z"/>
<path d="M2033 2401 l-193 -199 41 -37 c22 -20 44 -35 49 -33 5 2 89 92 186
202 l176 198 -33 34 c-18 19 -33 34 -33 34 -1 0 -88 -90 -193 -199z"/>
<path d="M2320 2433 c-59 -22 -130 -114 -130 -167 0 -41 28 -85 84 -131 51
-42 56 -60 25 -99 -26 -33 -39 -33 -88 0 -48 31 -56 50 -36 80 14 22 13 24
-22 53 -21 17 -43 31 -50 31 -17 0 -53 -72 -53 -105 0 -56 72 -139 154 -176
76 -35 134 -19 185 52 61 83 47 166 -40 239 -55 46 -58 59 -28 101 25 36 42
36 86 3 35 -26 38 -40 19 -84 -5 -12 5 -22 33 -38 21 -12 42 -22 45 -22 13 0
36 70 36 110 0 87 -139 183 -220 153z"/>
<path d="M4449 2347 c-59 -32 -89 -77 -89 -137 0 -39 16 -78 95 -238 53 -106
98 -192 101 -192 2 0 27 13 54 28 l49 28 -26 43 c-29 48 -33 41 55 92 29 17
54 30 56 28 1 -2 13 -21 25 -41 12 -21 24 -38 27 -38 7 0 94 64 94 70 0 5
-166 232 -226 308 -58 74 -134 91 -215 49z m173 -166 c44 -64 55 -88 47 -97
-11 -14 -97 -64 -108 -64 -12 0 -101 166 -101 188 0 28 47 64 79 60 20 -2 40
-23 83 -87z"/>
<path d="M2610 2250 c-11 -23 -19 -44 -16 -49 3 -4 23 -16 46 -26 22 -10 40
-21 40 -26 0 -4 -41 -94 -90 -200 -50 -106 -87 -196 -83 -200 5 -4 29 -17 55
-28 l47 -20 19 52 c26 69 143 351 147 356 2 2 25 -4 51 -13 26 -9 49 -16 51
-16 5 0 33 72 33 86 0 8 -12 17 -27 20 -16 4 -77 29 -136 55 -60 27 -111 49
-113 49 -2 0 -13 -18 -24 -40z"/>
<path d="M4122 2189 c-26 -6 -58 -25 -82 -48 -38 -36 -40 -41 -40 -97 0 -63
59 -290 86 -332 22 -34 74 -62 117 -62 49 0 144 34 175 62 53 50 64 106 36
178 -9 22 -17 40 -19 40 -1 0 -23 -9 -48 -20 l-46 -20 6 -48 c6 -54 0 -62 -60
-82 -33 -10 -41 -10 -58 6 -10 9 -23 33 -29 53 -5 20 -23 78 -39 129 -17 51
-28 99 -25 107 7 18 89 49 104 40 7 -4 18 -23 26 -41 16 -39 21 -40 69 -17 41
20 42 25 12 77 -41 72 -98 95 -185 75z"/>
<path d="M2949 2133 c-5 -14 -9 -28 -9 -32 0 -5 -31 -108 -70 -229 -38 -121
-70 -225 -70 -231 0 -6 17 -15 38 -20 79 -21 73 -25 99 79 13 52 25 100 27
106 5 13 112 -8 129 -25 6 -6 5 -43 -5 -108 -9 -54 -13 -101 -9 -104 3 -4 29
-10 57 -14 l51 -6 11 83 c17 116 15 133 -12 165 l-24 28 36 31 c32 27 36 36
40 91 8 110 -29 147 -181 185 l-99 24 -9 -23z m167 -123 c19 -7 24 -17 24 -43
0 -56 -18 -71 -80 -64 -29 4 -55 9 -58 12 -3 3 0 30 7 61 l13 56 35 -7 c19 -3
46 -10 59 -15z"/>
<path d="M3407 2066 c-80 -30 -89 -50 -112 -257 -15 -134 -12 -168 15 -218 18
-35 86 -61 160 -61 108 0 163 36 183 121 12 47 -19 324 -39 358 -33 56 -135
84 -207 57z m121 -109 c6 -7 12 -75 14 -156 3 -161 -1 -171 -72 -171 -68 0
-72 9 -71 158 2 171 6 182 70 182 27 0 53 -6 59 -13z"/>
<path d="M2575 1110 c23 -45 35 -84 35 -110 0 -29 4 -40 15 -40 11 0 15 12 15
45 0 31 10 65 30 105 34 68 35 70 16 70 -7 0 -25 -25 -38 -56 l-26 -56 -25 56
c-16 33 -32 56 -42 56 -12 0 -8 -15 20 -70z"/>
<path d="M2749 1151 c-25 -25 -29 -37 -29 -81 0 -44 4 -56 29 -81 77 -77 186
10 152 121 -21 71 -100 92 -152 41z m110 -15 c21 -25 24 -81 7 -114 -13 -26
-23 -32 -48 -32 -47 0 -68 25 -68 78 0 28 6 52 17 64 19 22 76 24 92 4z"/>
<path d="M2960 1095 c0 -78 2 -88 25 -110 15 -16 36 -25 55 -25 19 0 40 9 55
25 23 22 25 32 25 110 0 69 -3 85 -15 85 -12 0 -15 -16 -15 -83 0 -90 -8 -107
-50 -107 -42 0 -50 17 -50 107 0 67 -3 83 -15 83 -12 0 -15 -16 -15 -85z"/>
<path d="M3180 1070 c0 -91 3 -110 15 -110 11 0 15 12 15 50 0 43 3 50 19 50
13 0 29 -17 48 -50 15 -27 34 -50 41 -50 17 0 15 7 -13 56 l-25 42 25 16 c17
11 25 26 25 46 0 40 -32 60 -97 60 l-53 0 0 -110z m101 80 c41 -23 16 -70 -38
-70 -32 0 -33 1 -33 40 0 36 2 40 26 40 14 0 34 -5 45 -10z"/>
<path d="M3472 1164 c-22 -15 -29 -48 -14 -71 4 -6 29 -21 55 -32 40 -17 48
-25 45 -43 -2 -19 -10 -24 -41 -26 -21 -2 -44 1 -51 7 -12 10 -26 5 -26 -9 0
-12 50 -30 80 -30 17 0 39 9 50 20 38 38 21 79 -44 104 -46 18 -60 34 -46 56
6 9 21 11 54 7 48 -7 61 4 27 23 -28 14 -63 12 -89 -6z"/>
<path d="M3640 1070 l0 -110 60 0 c71 0 81 18 13 22 l-48 3 -3 98 c-4 135 -22
124 -22 -13z"/>
<path d="M3833 1170 c-27 -11 -53 -59 -53 -100 0 -95 98 -144 161 -81 25 25
29 37 29 81 0 44 -4 56 -29 81 -30 30 -65 36 -108 19z m89 -37 c24 -21 25 -99
1 -125 -20 -22 -76 -24 -93 -3 -21 25 -24 92 -6 120 20 30 69 34 98 8z"/>
<path d="M4044 1146 c-26 -26 -34 -42 -34 -70 0 -80 56 -128 128 -110 36 9 37
10 40 62 l3 52 -35 0 c-39 0 -49 -17 -13 -22 17 -2 22 -10 22 -33 0 -26 -4
-30 -32 -33 -46 -5 -71 13 -79 53 -13 72 27 115 96 102 38 -8 47 7 14 22 -43
19 -74 13 -110 -23z"/>
<path d="M4275 1168 c-17 -47 -65 -193 -65 -200 0 -21 21 -4 34 27 14 32 19
35 54 35 36 0 40 -3 48 -32 6 -18 17 -34 27 -36 15 -3 11 13 -21 105 -26 72
-44 109 -55 111 -10 2 -19 -2 -22 -10z m49 -95 c7 -21 4 -23 -27 -23 l-35 0
16 51 17 51 11 -28 c6 -16 15 -39 18 -51z"/>
<path d="M4420 1071 c0 -92 3 -111 15 -111 12 0 15 16 15 88 l0 87 51 -87 c69
-120 79 -117 79 22 0 96 -2 110 -16 110 -15 0 -16 -11 -11 -92 l7 -93 -53 90
c-29 49 -60 91 -70 93 -15 3 -17 -8 -17 -107z"/>
</g>
</svg>
